# xmcd
#
# Track frame offsets: 
#        150
#        13556
#        23843
#        36705
#        49281
#        77156
#        85908
#        96659
#        120621
#        134502
#        152538
#        171212
#
# Disc length: 2419 seconds
#
# Revision: 0
# Processed by: cddbd v1.5.1PL0 Copyright (c) Steve Scherf et al.
# Submitted via: ExactAudioCopy v0.95b2
#
DISCID=9f09710c
DTITLE=Various Artist - Golf Club On Air
DYEAR=2002
DGENRE=
TTITLE0=The Velvet Underground - Sunday Morning
TTITLE1=Serge Gainsbourg - S.S. In Uruguay
TTITLE2=Frank Sinatra - The Word We Knew
TTITLE3=The Shadows - The Rise And Fall Of Flingel Bunt
TTITLE4=Kraftwerk - Showroom Dummies
TTITLE5=Elvis Presley - Surrender
TTITLE6=Scott Walker - World's Strongest Man
TTITLE7=New Order - Vanishing Point
TTITLE8=Ella Fitzgerald - Bei Mia Du Schoen
TTITLE9=David Bowie - The Man Who Sold The World
TTITLE10=Tom Waits - Cold Call Ground
TTITLE11=Pink Floyd - Dramatic Theme
EXTD=
EXTT0=
EXTT1=
EXTT2=
EXTT3=
EXTT4=
EXTT5=
EXTT6=
EXTT7=
EXTT8=
EXTT9=
EXTT10=
EXTT11=
PLAYORDER=
